<svg xmlns="http://www.w3.org/2000/svg" viewBox="0 0 1200 900" width="1200" height="900" preserveAspectRatio="xMidYMid slice"><rect x="0" y="0" width="1200" height="900" rx="0" fill="#0B0B0B"/><rect x="0" y="0" width="230" height="900" rx="0" fill="#141414"/><rect x="230" y="0" width="1" height="900" rx="0" fill="#2A2A2A"/><rect x="34" y="36" width="34" height="34" rx="8" fill="#F2F2F2"/><rect x="44" y="46" width="14" height="14" rx="3" fill="#0B0B0B"/><rect x="34" y="130" width="26" height="26" rx="7" fill="none" stroke="#2A2A2A" stroke-width="2"/><rect x="78" y="139" width="110" height="9" rx="0" fill="#2E2E2E"/><rect x="34" y="186" width="26" height="26" rx="7" fill="none" stroke="#2A2A2A" stroke-width="2"/><rect x="78" y="195" width="80" height="9" rx="0" fill="#555"/><rect x="34" y="242" width="26" height="26" rx="7" fill="none" stroke="#2A2A2A" stroke-width="2"/><rect x="78" y="251" width="96" height="9" rx="0" fill="#2E2E2E"/><rect x="34" y="298" width="26" height="26" rx="7" fill="none" stroke="#2A2A2A" stroke-width="2"/><rect x="78" y="307" width="70" height="9" rx="0" fill="#2E2E2E"/><rect x="34" y="354" width="26" height="26" rx="7" fill="none" stroke="#2A2A2A" stroke-width="2"/><rect x="78" y="363" width="100" height="9" rx="0" fill="#2E2E2E"/><rect x="34" y="410" width="26" height="26" rx="7" fill="none" stroke="#2A2A2A" stroke-width="2"/><rect x="78" y="419" width="84" height="9" rx="0" fill="#2E2E2E"/><rect x="34" y="466" width="26" height="26" rx="7" fill="none" stroke="#2A2A2A" stroke-width="2"/><rect x="78" y="475" width="90" height="9" rx="0" fill="#2E2E2E"/><text x="270" y="70" font-family="Helvetica Neue, Arial, sans-serif" font-size="34" font-weight="700" fill="#F2F2F2" text-anchor="start" letter-spacing="0">Component inventory</text><text x="270" y="128" font-family="Helvetica Neue, Arial, sans-serif" font-size="20" font-weight="500" fill="#F2F2F2" text-anchor="start" letter-spacing="0">Component inventory</text><text x="440" y="128" font-family="Helvetica Neue, Arial, sans-serif" font-size="20" font-weight="500" fill="#8A8A8A" text-anchor="start" letter-spacing="0">Multi-branch control</text><rect x="270" y="142" width="150" height="2" rx="0" fill="#BE263B"/><rect x="270" y="144" width="900" height="1" rx="0" fill="#2A2A2A"/><rect x="270" y="176" width="210" height="90" rx="14" fill="#141414" stroke="#2A2A2A" stroke-width="1"/><rect x="290" y="198" width="80" height="10" rx="0" fill="#2E2E2E"/><rect x="290" y="226" width="120" height="22" rx="4" fill="#BE263B"/><rect x="496" y="176" width="210" height="90" rx="14" fill="#141414" stroke="#2A2A2A" stroke-width="1"/><rect x="516" y="198" width="80" height="10" rx="0" fill="#2E2E2E"/><rect x="516" y="226" width="134" height="22" rx="4" fill="#3A3A3A"/><rect x="722" y="176" width="210" height="90" rx="14" fill="#141414" stroke="#2A2A2A" stroke-width="1"/><rect x="742" y="198" width="80" height="10" rx="0" fill="#2E2E2E"/><rect x="742" y="226" width="148" height="22" rx="4" fill="#3A3A3A"/><rect x="948" y="176" width="210" height="90" rx="14" fill="#141414" stroke="#2A2A2A" stroke-width="1"/><rect x="968" y="198" width="80" height="10" rx="0" fill="#2E2E2E"/><rect x="968" y="226" width="162" height="22" rx="4" fill="#3A3A3A"/><rect x="270" y="296" width="900" height="566" rx="14" fill="#141414" stroke="#2A2A2A" stroke-width="1"/><rect x="300" y="326" width="196" height="152" rx="12" fill="#1C1C1C" stroke="#2A2A2A" stroke-width="1"/><rect x="314" y="396" width="168" height="68" rx="6" fill="#262626"/><rect x="314" y="340" width="60" height="9" rx="0" fill="#2E2E2E"/><rect x="518" y="326" width="196" height="152" rx="12" fill="#1C1C1C" stroke="#2A2A2A" stroke-width="1"/><rect x="532" y="412" width="168" height="52" rx="6" fill="#262626"/><rect x="532" y="340" width="60" height="9" rx="0" fill="#2E2E2E"/><rect x="736" y="326" width="196" height="152" rx="12" fill="#1C1C1C" stroke="#2A2A2A" stroke-width="1"/><rect x="750" y="376" width="168" height="88" rx="6" fill="#262626"/><rect x="750" y="340" width="60" height="9" rx="0" fill="#2E2E2E"/><rect x="954" y="326" width="196" height="152" rx="12" fill="#1C1C1C" stroke="#2A2A2A" stroke-width="1"/><rect x="968" y="426" width="168" height="38" rx="6" fill="#262626"/><rect x="968" y="340" width="60" height="9" rx="0" fill="#2E2E2E"/><rect x="300" y="502" width="196" height="152" rx="12" fill="#1C1C1C" stroke="#2A2A2A" stroke-width="1"/><rect x="314" y="562" width="168" height="78" rx="6" fill="#262626"/><rect x="314" y="516" width="60" height="9" rx="0" fill="#2E2E2E"/><rect x="518" y="502" width="196" height="152" rx="12" fill="#1C1C1C" stroke="#2A2A2A" stroke-width="1"/><rect x="532" y="580" width="168" height="60" rx="6" fill="#262626"/><rect x="532" y="516" width="60" height="9" rx="0" fill="#2E2E2E"/><rect x="736" y="502" width="196" height="152" rx="12" fill="#1C1C1C" stroke="#FF5A6E" stroke-width="2"/><rect x="750" y="541" width="168" height="99" rx="6" fill="#7A2A36"/><rect x="750" y="516" width="60" height="9" rx="0" fill="#555"/><rect x="954" y="502" width="196" height="152" rx="12" fill="#1C1C1C" stroke="#2A2A2A" stroke-width="1"/><rect x="968" y="594" width="168" height="46" rx="6" fill="#262626"/><rect x="968" y="516" width="60" height="9" rx="0" fill="#2E2E2E"/><rect x="300" y="678" width="196" height="152" rx="12" fill="#1C1C1C" stroke="#2A2A2A" stroke-width="1"/><rect x="314" y="744" width="168" height="72" rx="6" fill="#262626"/><rect x="314" y="692" width="60" height="9" rx="0" fill="#2E2E2E"/><rect x="518" y="678" width="196" height="152" rx="12" fill="#1C1C1C" stroke="#2A2A2A" stroke-width="1"/><rect x="532" y="753" width="168" height="63" rx="6" fill="#262626"/><rect x="532" y="692" width="60" height="9" rx="0" fill="#2E2E2E"/><rect x="736" y="678" width="196" height="152" rx="12" fill="#1C1C1C" stroke="#2A2A2A" stroke-width="1"/><rect x="750" y="783" width="168" height="33" rx="6" fill="#262626"/><rect x="750" y="692" width="60" height="9" rx="0" fill="#2E2E2E"/><rect x="954" y="678" width="196" height="152" rx="12" fill="#1C1C1C" stroke="#2A2A2A" stroke-width="1"/><rect x="968" y="735" width="168" height="81" rx="6" fill="#262626"/><rect x="968" y="692" width="60" height="9" rx="0" fill="#2E2E2E"/></svg>